<svg width="24" height="24" viewBox="0 0 24 24" fill="none" xmlns="http://www.w3.org/2000/svg">
  <path d="M11.9973 23C13.5185 23 14.9487 22.7109 16.2877 22.1328C17.6269 21.5545 18.7918 20.7698 19.7824 19.7786C20.7728 18.7874 21.5567 17.6235 22.134 16.2871C22.7113 14.9504 23 13.5223 23 12.0027C23 10.4815 22.7109 9.05135 22.1328 7.71233C21.5545 6.37312 20.7698 5.20821 19.7786 4.2176C18.7874 3.22719 17.6235 2.44332 16.2871 1.86599C14.9504 1.28866 13.5223 1 12.0027 1C10.4815 1 9.05135 1.28906 7.71233 1.86718C6.37312 2.44549 5.20821 3.23025 4.2176 4.22145C3.22719 5.21264 2.44332 6.37647 1.86599 7.71292C1.28866 9.04957 1 10.4777 1 11.9973C1 13.5185 1.28906 14.9487 1.86718 16.2877C2.44549 17.6269 3.23025 18.7918 4.22145 19.7824C5.21264 20.7728 6.37647 21.5567 7.71292 22.134C9.04957 22.7113 10.4777 23 11.9973 23ZM21.3449 12H12V2.65509C14.6003 2.65509 16.8079 3.56239 18.6227 5.37699C20.4375 7.19159 21.3449 9.39926 21.3449 12Z" fill="#8D8D8E"/>
  </svg>
  