<svg width="24" height="24" viewBox="0 0 24 24" fill="none" xmlns="http://www.w3.org/2000/svg">
  <path fill-rule="evenodd" clip-rule="evenodd" d="M10.2222 4.22234C6.90851 4.22234 4.22222 6.90864 4.22222 10.2223C4.22222 13.5361 6.90851 16.2223 10.2222 16.2223C11.8331 16.2223 13.2958 15.5875 14.3736 14.5544C14.3998 14.5213 14.4282 14.4894 14.4588 14.4589C14.4893 14.4283 14.5212 14.3999 14.5542 14.3737C15.5874 13.2959 16.2222 11.8332 16.2222 10.2223C16.2222 6.90864 13.5359 4.22234 10.2222 4.22234ZM16.7689 15.1976C17.8203 13.8163 18.4444 12.0922 18.4444 10.2223C18.4444 5.68134 14.7632 2.00012 10.2222 2.00012C5.68121 2.00012 2 5.68134 2 10.2223C2 14.7634 5.68121 18.4446 10.2222 18.4446C12.0921 18.4446 13.8162 17.8204 15.1975 16.769L20.1032 21.6747C20.5371 22.1086 21.2407 22.1086 21.6746 21.6747C22.1085 21.2408 22.1085 20.5373 21.6746 20.1033L16.7689 15.1976Z" fill="#A5A5A5"/>
  </svg>
  